<svg width="32" height="26" viewBox="0 0 32 26" fill="none" xmlns="http://www.w3.org/2000/svg">
<g id="bathub 1" clip-path="url(#clip0_263_2054)">
<g id="Group">
<g id="Group_2">
<path id="Vector" d="M7.78272 13.1264C7.48832 13.1264 7.24512 12.8896 7.24512 12.5888V3.3024C7.24512 1.4848 8.72352 0 10.5475 0C11.8147 0 12.9859 0.736 13.5299 1.8816C13.6579 2.1504 13.5427 2.4704 13.2739 2.5984C13.0051 2.7264 12.6851 2.6112 12.5571 2.3424C12.1859 1.568 11.3987 1.0688 10.5411 1.0688C9.31872 1.0752 8.32032 2.0736 8.32032 3.3024V12.5888C8.32032 12.8896 8.07712 13.1264 7.78272 13.1264Z" fill="#6A85B5"/>
</g>
<g id="Group_3">
<path id="Vector_2" d="M28.3266 17.3825H3.67383C3.37943 17.3825 3.13623 17.1457 3.13623 16.8449C3.13623 16.5505 3.37303 16.3073 3.67383 16.3073H28.333C28.6274 16.3073 28.8706 16.5441 28.8706 16.8449C28.8642 17.1393 28.6274 17.3825 28.3266 17.3825Z" fill="#6A85B5"/>
</g>
<g id="Group_4">
<path id="Vector_3" d="M21.8946 25.6H10.1058C6.26583 25.6 3.13623 22.4768 3.13623 18.6304V13.8048C3.13623 12.9152 3.85943 12.1984 4.74263 12.1984H27.2578C28.1474 12.1984 28.8642 12.9216 28.8642 13.8048V18.6304C28.8642 22.4768 25.741 25.6 21.8946 25.6ZM4.74263 13.2736C4.44823 13.2736 4.20503 13.5168 4.20503 13.8112V18.6368C4.20503 21.888 6.84823 24.5312 10.0994 24.5312H21.8946C25.1458 24.5312 27.789 21.888 27.789 18.6368V13.8112C27.789 13.5168 27.5458 13.2736 27.2514 13.2736H4.74263Z" fill="#6A85B5"/>
</g>
<g id="Group_5">
<path id="Vector_4" d="M15.5328 5.38884H10.7456C10.4512 5.38884 10.208 5.15204 10.208 4.85124C10.208 3.23844 11.52 1.92004 13.1392 1.92004C14.7584 1.92004 16.0704 3.23204 16.0704 4.85124C16.0704 5.15204 15.8272 5.38884 15.5328 5.38884ZM11.36 4.32004H14.9184C14.688 3.55844 13.9776 2.99524 13.1392 2.99524C12.3008 2.99524 11.5904 3.55204 11.36 4.32004Z" fill="#6A85B5"/>
</g>
</g>
</g>
<defs>
<clipPath id="clip0_263_2054">
<rect width="32" height="25.6" fill="white"/>
</clipPath>
</defs>
</svg>
