<svg width="60" height="60" viewBox="0 0 60 60" fill="none" xmlns="http://www.w3.org/2000/svg">
<g id="cil:pool">
<path id="Vector" d="M54.8999 42.3633C53.8368 41.8672 52.5138 41.25 50.0889 41.25C47.6639 41.25 46.3409 41.8673 45.278 42.3633C44.366 42.7888 43.6458 43.125 42.0526 43.125C40.4595 43.125 39.7395 42.7889 38.8276 42.3633C37.7646 41.8673 36.4418 41.25 34.0168 41.25C31.5919 41.25 30.2691 41.8675 29.2062 42.3633C28.2943 42.7888 27.5742 43.125 25.9813 43.125C24.3884 43.125 23.6684 42.7889 22.7566 42.3633C21.6938 41.8673 20.3709 41.25 17.9461 41.25C15.5212 41.25 14.1983 41.8675 13.1354 42.3633C12.2236 42.7888 11.5035 43.125 9.91055 43.125C8.31762 43.125 7.5975 42.7889 6.68566 42.3633C5.62277 41.8675 4.29984 41.25 1.875 41.25V45C3.46793 45 4.18805 45.3361 5.09988 45.7617C6.16277 46.2577 7.4857 46.875 9.91055 46.875C12.3354 46.875 13.6583 46.2575 14.7212 45.7617C15.633 45.3362 16.3532 45 17.9461 45C19.539 45 20.259 45.3361 21.1707 45.7617C22.2336 46.2577 23.5564 46.875 25.9813 46.875C28.4061 46.875 29.7291 46.2575 30.792 45.7617C31.7038 45.3362 32.424 45 34.0168 45C35.6096 45 36.33 45.3361 37.2418 45.7617C38.3048 46.2577 39.6277 46.875 42.0526 46.875C44.4776 46.875 45.8006 46.2577 46.8636 45.7617C47.7755 45.3362 48.4958 45 50.0889 45C51.6819 45 52.4023 45.3361 53.314 45.7617C54.3771 46.2578 55.7 46.875 58.125 46.875V43.125C56.532 43.125 55.8116 42.7889 54.8999 42.3633ZM50.0889 52.5C47.6639 52.5 46.3409 53.1173 45.278 53.6133C44.366 54.0388 43.6458 54.375 42.0526 54.375C40.4595 54.375 39.7395 54.0389 38.8276 53.6133C37.7646 53.1173 36.4418 52.5 34.0168 52.5C31.5919 52.5 30.2691 53.1175 29.2062 53.6133C28.2943 54.0388 27.5742 54.375 25.9813 54.375C24.3884 54.375 23.6684 54.0389 22.7566 53.6133C21.6938 53.1173 20.3709 52.5 17.9461 52.5C15.5212 52.5 14.1983 53.1175 13.1354 53.6133C12.2236 54.0388 11.5035 54.375 9.91055 54.375C8.31762 54.375 7.5975 54.0389 6.68566 53.6133C5.62277 53.1175 4.29984 52.5 1.875 52.5V56.25C3.46793 56.25 4.18805 56.5861 5.09988 57.0117C6.16277 57.5077 7.4857 58.125 9.91055 58.125C12.3354 58.125 13.6583 57.5075 14.7212 57.0117C15.633 56.5862 16.3532 56.25 17.9461 56.25C19.539 56.25 20.259 56.5861 21.1707 57.0117C22.2336 57.5077 23.5564 58.125 25.9813 58.125C28.4061 58.125 29.7291 57.5075 30.792 57.0117C31.7038 56.5862 32.424 56.25 34.0168 56.25C35.6096 56.25 36.33 56.5861 37.2418 57.0117C38.3048 57.5077 39.6277 58.125 42.0526 58.125C44.4776 58.125 45.8006 57.5077 46.8636 57.0117C47.7755 56.5862 48.4958 56.25 50.0889 56.25C51.6819 56.25 52.4023 56.5861 53.314 57.0117C54.3771 57.5078 55.7 58.125 58.125 58.125V54.375C56.532 54.375 55.8116 54.0389 54.8999 53.6133C53.8368 53.1173 52.5138 52.5 50.0889 52.5ZM29.0625 31.875H45.9375V38.4375H49.6875V13.5795C49.686 12.4413 50.0313 11.3298 50.6773 10.3928L56.5332 1.875H51.9824L47.587 8.26828C46.5104 9.83 45.935 11.6826 45.9375 13.5795V18.75H29.0625V13.5795C29.061 12.4413 29.4063 11.3298 30.0523 10.3928L35.9082 1.875H31.3574L26.962 8.26828C25.8854 9.83 25.31 11.6826 25.3125 13.5795V38.4375H29.0625V31.875ZM29.0625 22.5H45.9375V28.125H29.0625V22.5Z" fill="#6A85B5"/>
</g>
</svg>
