<svg width="60" height="60" viewBox="0 0 60 60" fill="none" xmlns="http://www.w3.org/2000/svg">
<g id="iconoir:gym">
<g id="Group">
<path id="Vector" d="M18.5 17.5H11.5C11.1022 17.5 10.7206 17.658 10.4393 17.9393C10.158 18.2206 10 18.6022 10 19V41C10 41.197 10.0388 41.392 10.1142 41.574C10.1896 41.756 10.3001 41.9214 10.4393 42.0607C10.5786 42.1999 10.744 42.3104 10.926 42.3858C11.108 42.4612 11.303 42.5 11.5 42.5H18.5C18.697 42.5 18.892 42.4612 19.074 42.3858C19.256 42.3104 19.4214 42.1999 19.5607 42.0607C19.6999 41.9214 19.8104 41.756 19.8858 41.574C19.9612 41.392 20 41.197 20 41V19C20 18.6022 19.842 18.2206 19.5607 17.9393C19.2794 17.658 18.8978 17.5 18.5 17.5ZM48.5 17.5H41.5C41.1022 17.5 40.7206 17.658 40.4393 17.9393C40.158 18.2206 40 18.6022 40 19V41C40 41.197 40.0388 41.392 40.1142 41.574C40.1896 41.756 40.3001 41.9214 40.4393 42.0607C40.5786 42.1999 40.744 42.3104 40.926 42.3858C41.108 42.4612 41.303 42.5 41.5 42.5H48.5C48.697 42.5 48.892 42.4612 49.074 42.3858C49.256 42.3104 49.4214 42.1999 49.5607 42.0607C49.6999 41.9214 49.8104 41.756 49.8858 41.574C49.9612 41.392 50 41.197 50 41V19C50 18.6022 49.842 18.2206 49.5607 17.9393C49.2794 17.658 48.8978 17.5 48.5 17.5Z" stroke="#6A85B5" stroke-width="3" stroke-linecap="round" stroke-linejoin="round"/>
<path id="Vector_2" d="M20 30H40M2.5 36V24C2.5 23.6022 2.65804 23.2206 2.93934 22.9393C3.22064 22.658 3.60218 22.5 4 22.5H8.5C8.89782 22.5 9.27936 22.658 9.56066 22.9393C9.84196 23.2206 10 23.6022 10 24V36C10 36.3978 9.84196 36.7794 9.56066 37.0607C9.27936 37.342 8.89782 37.5 8.5 37.5H4C3.60218 37.5 3.22064 37.342 2.93934 37.0607C2.65804 36.7794 2.5 36.3978 2.5 36ZM57.5 36V24C57.5 23.6022 57.342 23.2206 57.0607 22.9393C56.7794 22.658 56.3978 22.5 56 22.5H51.5C51.1022 22.5 50.7206 22.658 50.4393 22.9393C50.158 23.2206 50 23.6022 50 24V36C50 36.3978 50.158 36.7794 50.4393 37.0607C50.7206 37.342 51.1022 37.5 51.5 37.5H56C56.3978 37.5 56.7794 37.342 57.0607 37.0607C57.342 36.7794 57.5 36.3978 57.5 36Z" stroke="#6A85B5" stroke-width="3" stroke-linecap="round" stroke-linejoin="round"/>
</g>
</g>
</svg>
