<svg width="60" height="60" viewBox="0 0 60 60" fill="none" xmlns="http://www.w3.org/2000/svg">
<g id="cil:tennis">
<path id="Vector" d="M16.875 9.375C16.875 7.89164 16.4351 6.4416 15.611 5.20823C14.7869 3.97486 13.6156 3.01356 12.2451 2.44591C10.8747 1.87825 9.36668 1.72972 7.91183 2.01911C6.45697 2.3085 5.1206 3.02281 4.0717 4.0717C3.02281 5.1206 2.3085 6.45697 2.01911 7.91183C1.72972 9.36668 1.87825 10.8747 2.44591 12.2451C3.01356 13.6156 3.97486 14.7869 5.20823 15.611C6.4416 16.4351 7.89164 16.875 9.375 16.875C11.3634 16.8728 13.2698 16.0819 14.6758 14.6758C16.0819 13.2698 16.8728 11.3634 16.875 9.375ZM5.625 9.375C5.625 8.63332 5.84494 7.9083 6.25699 7.29162C6.66905 6.67493 7.25472 6.19428 7.93994 5.91046C8.62516 5.62663 9.37916 5.55236 10.1066 5.69706C10.834 5.84175 11.5022 6.19891 12.0267 6.72335C12.5511 7.2478 12.9083 7.91599 13.0529 8.64341C13.1976 9.37084 13.1234 10.1248 12.8396 10.8101C12.5557 11.4953 12.0751 12.081 11.4584 12.493C10.8417 12.9051 10.1167 13.125 9.375 13.125C8.38078 13.1239 7.42761 12.7284 6.72459 12.0254C6.02157 11.3224 5.62612 10.3692 5.625 9.375ZM51.6387 8.37141C50.1911 6.91508 48.4708 5.75826 46.576 4.96707C44.6812 4.17587 42.6491 3.76581 40.5957 3.76032H40.5229C36.1295 3.76032 31.8393 5.63168 28.4367 9.03457C24.9704 12.501 22.1381 17.7684 20.8603 23.1252C20.5376 24.4608 20.3237 25.8203 20.2206 27.1904C20.0876 29.31 19.476 31.372 18.4317 33.2213C17.7006 34.4855 16.8065 35.6482 15.7726 36.6797L6.48141 46.1966C5.02957 47.6534 4.875 49.1514 5.0018 50.1524C5.14875 51.3148 5.76645 52.4693 6.78809 53.4911C7.80973 54.5128 8.96485 55.1305 10.1269 55.2773C10.3117 55.3008 10.4977 55.3125 10.684 55.3125C11.6435 55.3125 12.8818 54.9986 14.0911 53.7891L23.3815 44.2734C24.4911 43.1622 25.7524 42.2136 27.1279 41.4558C28.8869 40.5084 30.8294 39.9512 32.8232 39.8218C34.2014 39.7164 35.5687 39.4984 36.9114 39.17C42.2486 37.882 47.5062 35.0419 50.9752 31.5728C54.397 28.1509 56.2699 23.8328 56.2492 19.4138C56.2437 17.3606 55.8337 15.3286 55.0426 13.4339C54.2515 11.5392 53.0948 9.81893 51.6387 8.37141ZM11.4323 51.1448C10.9702 51.6039 10.6992 51.5697 10.597 51.557C10.2772 51.5164 9.85547 51.255 9.43981 50.8393C9.02414 50.4237 8.76258 50.0019 8.72215 49.682C8.70914 49.5792 8.67469 49.307 9.14133 48.8399L16.568 41.233L18.866 43.5311L11.4323 51.1448ZM21.5163 40.878L19.1759 38.5377C20.1193 37.4904 20.9514 36.3479 21.6586 35.1286C22.4263 36.4974 23.5569 37.6277 24.9258 38.3952C23.7064 39.1025 22.5637 39.9346 21.5163 40.8782V40.878ZM48.3241 28.9219C45.367 31.8789 40.657 34.4093 36.0322 35.5254C31.4297 36.636 27.5742 36.1915 25.7183 34.3359C21.7617 30.3791 24.6727 18.1017 31.0884 11.6859C34.0256 8.74875 37.358 7.52485 40.4859 7.52485C43.6696 7.52664 46.7242 8.78359 48.9871 11.023C53.1648 15.2007 54.3523 22.8935 48.3241 28.9219Z" fill="#6A85B5"/>
</g>
</svg>
