<svg width="60" height="60" viewBox="0 0 60 60" fill="none" xmlns="http://www.w3.org/2000/svg">
<g id="mdi:playground-slide">
<path id="Vector" d="M36.6566 38.8988L36.6592 38.9027C39.1309 42.6039 41.4859 45.5124 44.347 47.4895C47.1146 49.4019 50.3225 50.4208 54.5 50.4956V54.4962C49.4229 54.4185 45.5509 53.1516 42.2837 50.9362C38.8979 48.6403 36.1285 45.3037 33.3414 41.1233C32.3749 39.6611 31.5811 38.3217 30.8596 37.0528L30.8584 37.0507C29.7669 35.153 28.8525 33.5759 27.6386 32.3784C26.4017 31.1582 24.8762 30.3498 22.5948 29.9091L22 29.7942V30.4V54.5H18V50V49.5H17.5H10H9.5V50V54.5H5.5V13.75C5.5 9.20114 9.20114 5.5 13.75 5.5C18.2989 5.5 22 9.20114 22 13.75V25.325V25.7554L22.4256 25.8194C25.8353 26.3327 28.0789 27.4119 29.8262 28.9474C31.5891 30.4968 32.8786 32.5361 34.3421 35.0502C34.3822 35.12 34.4226 35.1903 34.4631 35.261C35.1033 36.3761 35.8017 37.5927 36.6566 38.8988ZM23 30.5055C27.0045 31.4256 28.3106 33.6239 30.425 37.3C31.15 38.575 31.95 39.925 32.925 41.4L23 30.5055ZM17.5 25.5H18V25V13.75C18 11.3989 16.1011 9.5 13.75 9.5C11.3989 9.5 9.5 11.3989 9.5 13.75V25V25.5H10H17.5ZM9.5 45V45.5H10H17.5H18V45V40V39.5H17.5H10H9.5V40V45ZM17.5 35.5H18V35V30V29.5H17.5H10H9.5V30V35V35.5H10H17.5Z" fill="#6A85B5" stroke="white"/>
</g>
</svg>
