<svg width="60" height="60" viewBox="0 0 60 60" fill="none" xmlns="http://www.w3.org/2000/svg">
<g id="ph:bus">
<path id="Vector" d="M44.5312 7.5H15.4688C13.4815 7.50618 11.5775 8.29834 10.1723 9.70353C8.76709 11.1087 7.97493 13.0128 7.96875 15V50.625C7.96875 51.6196 8.36384 52.5734 9.0671 53.2766C9.77036 53.9799 10.7242 54.375 11.7188 54.375H17.3438C18.3383 54.375 19.2921 53.9799 19.9954 53.2766C20.6987 52.5734 21.0938 51.6196 21.0938 50.625V46.875H38.9062V50.625C38.9062 51.6196 39.3013 52.5734 40.0046 53.2766C40.7079 53.9799 41.6617 54.375 42.6562 54.375H48.2812C49.2758 54.375 50.2296 53.9799 50.9329 53.2766C51.6362 52.5734 52.0312 51.6196 52.0312 50.625V15C52.0251 13.0128 51.2329 11.1087 49.8277 9.70353C48.4225 8.29834 46.5185 7.50618 44.5312 7.5ZM11.7188 43.125V30H48.2812V43.125H11.7188ZM11.7188 18.75H48.2812V26.25H11.7188V18.75ZM15.4688 11.25H44.5312C45.5258 11.25 46.4796 11.6451 47.1829 12.3483C47.8862 13.0516 48.2812 14.0054 48.2812 15H11.7188C11.7188 14.0054 12.1138 13.0516 12.8171 12.3483C13.5204 11.6451 14.4742 11.25 15.4688 11.25ZM17.3438 50.625H11.7188V46.875H17.3438V50.625ZM42.6562 50.625V46.875H48.2812V50.625H42.6562ZM22.0312 36.5625C22.0312 37.1188 21.8663 37.6625 21.5573 38.125C21.2482 38.5876 20.809 38.948 20.295 39.1609C19.7811 39.3738 19.2156 39.4295 18.6701 39.321C18.1245 39.2124 17.6233 38.9446 17.23 38.5512C16.8367 38.1579 16.5688 37.6568 16.4603 37.1112C16.3518 36.5656 16.4075 36.0001 16.6203 35.4862C16.8332 34.9723 17.1937 34.533 17.6562 34.224C18.1187 33.915 18.6625 33.75 19.2188 33.75C19.9647 33.75 20.68 34.0463 21.2075 34.5738C21.7349 35.1012 22.0312 35.8166 22.0312 36.5625ZM43.5938 36.5625C43.5938 37.1188 43.4288 37.6625 43.1198 38.125C42.8107 38.5876 42.3715 38.948 41.8575 39.1609C41.3436 39.3738 40.7781 39.4295 40.2326 39.321C39.687 39.2124 39.1858 38.9446 38.7925 38.5512C38.3992 38.1579 38.1313 37.6568 38.0228 37.1112C37.9143 36.5656 37.97 36.0001 38.1828 35.4862C38.3957 34.9723 38.7562 34.533 39.2187 34.224C39.6812 33.915 40.225 33.75 40.7812 33.75C41.5272 33.75 42.2425 34.0463 42.77 34.5738C43.2974 35.1012 43.5938 35.8166 43.5938 36.5625Z" fill="#6A85B5"/>
</g>
</svg>
