<svg width="65" height="60" viewBox="0 0 65 60" fill="none" xmlns="http://www.w3.org/2000/svg">
<g id="tabler:beach">
<g id="Group">
<path id="Vector" d="M47.5393 41.875C43.73 38.3592 38.5638 36.384 33.177 36.384C27.7902 36.384 22.624 38.3592 18.8147 41.875M48.7499 9.51001C45.0176 7.52098 40.5822 6.98196 36.4194 8.01153C32.2566 9.0411 28.7074 11.5549 26.5524 15L54.6974 30C56.8522 26.5548 57.4361 22.4606 56.3208 18.618C55.2054 14.7754 52.4821 11.4992 48.7499 9.51001Z" stroke="#6A85B5" stroke-width="3.5" stroke-linecap="round" stroke-linejoin="round"/>
<path id="Vector_2" d="M45.3158 25C49.8062 17.825 51.3419 10.89 48.75 9.51001C46.1581 8.13001 40.4219 12.825 35.9342 20M40.625 22.5L32.5 35.49M8.125 48.125C8.96808 47.7381 9.89217 47.5248 10.8333 47.5C11.8882 47.4796 12.9326 47.6966 13.8764 48.1321C14.8201 48.5677 15.6347 49.2088 16.25 50C16.8653 50.7912 17.6799 51.4323 18.6236 51.8679C19.5674 52.3035 20.6118 52.5204 21.6667 52.5C22.7216 52.5204 23.766 52.3035 24.7097 51.8679C25.6534 51.4323 26.4681 50.7912 27.0833 50C27.6986 49.2088 28.5133 48.5677 29.457 48.1321C30.4007 47.6966 31.4451 47.4796 32.5 47.5C33.5549 47.4796 34.5993 47.6966 35.543 48.1321C36.4867 48.5677 37.3014 49.2088 37.9167 50C38.5319 50.7912 39.3466 51.4323 40.2903 51.8679C41.234 52.3035 42.2784 52.5204 43.3333 52.5C44.3882 52.5204 45.4326 52.3035 46.3763 51.8679C47.3201 51.4323 48.1347 50.7912 48.75 50C49.3653 49.2088 50.1799 48.5677 51.1236 48.1321C52.0674 47.6966 53.1118 47.4796 54.1667 47.5C55.1078 47.5248 56.0319 47.7381 56.875 48.125" stroke="#6A85B5" stroke-width="3.5" stroke-linecap="round" stroke-linejoin="round"/>
</g>
</g>
</svg>
