<svg width="14" height="14" viewBox="0 0 14 14" fill="none" xmlns="http://www.w3.org/2000/svg">
<g id="carbon:location-company">
<path id="Vector" d="M7 13.125L3.30926 8.77231C3.25797 8.70695 3.20722 8.64118 3.15701 8.575C2.52656 7.74453 2.18598 6.73016 2.18751 5.6875C2.18751 4.41115 2.69454 3.18707 3.59705 2.28455C4.49957 1.38203 5.72365 0.875 7 0.875C8.27636 0.875 9.50044 1.38203 10.403 2.28455C11.3055 3.18707 11.8125 4.41115 11.8125 5.6875C11.814 6.72969 11.4736 7.7436 10.8434 8.57369L10.843 8.575C10.843 8.575 10.7118 8.74738 10.6921 8.77056L7 13.125ZM3.85526 8.04781C3.85613 8.04781 3.95763 8.18256 3.98082 8.21144L7 11.7723L10.0231 8.20662C10.0424 8.18256 10.1448 8.04694 10.1452 8.0465C10.6602 7.36799 10.9385 6.53933 10.9375 5.6875C10.9375 4.64321 10.5227 3.64169 9.78424 2.90327C9.04581 2.16484 8.04429 1.75 7 1.75C5.95571 1.75 4.9542 2.16484 4.21577 2.90327C3.47735 3.64169 3.06251 4.64321 3.06251 5.6875C3.06159 6.53986 3.33978 7.36899 3.85526 8.04781Z" fill="#7B6856"/>
<path id="Vector_2" d="M9.1875 7.875H8.3125V4.375H5.6875V7.875H4.8125V4.375C4.81273 4.14301 4.90499 3.92058 5.06904 3.75654C5.23308 3.59249 5.45551 3.50023 5.6875 3.5H8.3125C8.54449 3.50023 8.76692 3.59249 8.93096 3.75654C9.09501 3.92058 9.18727 4.14301 9.1875 4.375V7.875Z" fill="#7B6856"/>
<path id="Vector_3" d="M6.5625 7H7.4375V7.875H6.5625V7ZM6.5625 5.25H7.4375V6.125H6.5625V5.25Z" fill="#7B6856"/>
</g>
</svg>
