<svg width="32" height="26" viewBox="0 0 32 26" fill="none" xmlns="http://www.w3.org/2000/svg">
<g id="wifi 1" clip-path="url(#clip0_263_2044)">
<g id="Group">
<g id="Group_2">
<path id="Vector" d="M6.26544 25.6C5.91344 25.6 5.63184 25.3184 5.63184 24.9664V18.8864C5.63184 18.5344 5.91344 18.2528 6.26544 18.2528C6.61744 18.2528 6.89904 18.5344 6.89904 18.8864V24.9664C6.90544 25.3184 6.61744 25.6 6.26544 25.6Z" fill="#6A85B5"/>
</g>
<g id="Group_3">
<path id="Vector_2" d="M12.7552 25.5999C12.4032 25.5999 12.1216 25.3183 12.1216 24.9663V12.5503C12.1216 12.1983 12.4032 11.9167 12.7552 11.9167C13.1072 11.9167 13.3888 12.1983 13.3888 12.5503V24.9663C13.3888 25.3183 13.1072 25.5999 12.7552 25.5999Z" fill="#6A85B5"/>
</g>
<g id="Group_4">
<path id="Vector_3" d="M19.2444 25.6C18.8924 25.6 18.6108 25.3184 18.6108 24.9664V6.22076C18.6108 5.86876 18.8924 5.58716 19.2444 5.58716C19.5964 5.58716 19.878 5.86876 19.878 6.22076V24.9664C19.878 25.3184 19.5964 25.6 19.2444 25.6Z" fill="#6A85B5"/>
</g>
<g id="Group_5">
<path id="Vector_4" d="M25.7342 25.6C25.3822 25.6 25.1006 25.3184 25.1006 24.9664V0.6336C25.1006 0.2816 25.3822 0 25.7342 0C26.0862 0 26.3678 0.2816 26.3678 0.6336V24.9664C26.3678 25.3184 26.0798 25.6 25.7342 25.6Z" fill="#6A85B5"/>
</g>
</g>
</g>
<defs>
<clipPath id="clip0_263_2044">
<rect width="32" height="25.6" fill="white"/>
</clipPath>
</defs>
</svg>
