<svg width="220" height="172" viewBox="0 0 220 172" fill="none" xmlns="http://www.w3.org/2000/svg">
<g id="logo citadines pearl hoi an 2" clip-path="url(#clip0_176_245)">
<g id="Group">
<g id="Layer 1">
<g id="Clip path group">
<mask id="mask0_176_245" style="mask-type:luminance" maskUnits="userSpaceOnUse" x="0" y="-48" width="220" height="220">
<g id="cp0">
<path id="Vector" d="M0 -48H220V172H0V-48Z" fill="white"/>
</g>
</mask>
<g mask="url(#mask0_176_245)">
<g id="Group_2">
<path id="Vector_2" d="M85.1137 85.4196V87.9382C85.1137 88.5643 85.0305 89.5802 85.7262 89.8451V89.8865H83.0818V89.8451C83.7779 89.5802 83.6943 88.5643 83.6943 87.9382V82.6784C83.6943 82.0518 83.7915 81.0354 83.0818 80.7714V80.7296H85.7262V80.7714C85.0305 81.0354 85.1137 82.0518 85.1137 82.692V84.4177H90.1376V82.692C90.1376 82.0518 90.2353 81.0354 89.5251 80.7714V80.7296H92.1832V80.7714C91.4739 81.0354 91.5571 82.0518 91.5571 82.6784V87.9382C91.5571 88.5643 91.4739 89.5802 92.1832 89.8451V89.8865H89.5251V89.8451C90.2353 89.5802 90.1376 88.5643 90.1376 87.9382V85.4196H85.1137Z" fill="#7B6856"/>
<path id="Vector_3" d="M100.103 86.9085C100.103 85.559 99.3794 84.2227 97.8909 84.2227C96.5959 84.2227 95.7613 85.2387 95.7613 86.4914C95.7613 87.7718 96.5269 89.149 97.9459 89.149C99.2267 89.149 100.103 88.1612 100.103 86.9085ZM94.3555 86.7417C94.3555 84.6544 96.0393 83.3044 98.0435 83.3044C98.9341 83.3044 99.6997 83.5407 100.368 84.125C101.078 84.7516 101.509 85.6703 101.509 86.6168C101.509 88.6205 99.8387 90.0681 97.8763 90.0681C95.9698 90.0681 94.3555 88.7178 94.3555 86.7417Z" fill="#7B6856"/>
<path id="Vector_4" d="M104.795 82.6498C104.28 82.6498 103.89 82.2463 103.89 81.7315C103.89 81.2444 104.335 80.9105 104.795 80.9105C105.268 80.9105 105.629 81.314 105.629 81.7729C105.629 82.2327 105.268 82.6498 104.795 82.6498ZM104.53 83.4845C104.85 83.4845 105.198 83.4708 105.435 83.2627H105.476V88.3425C105.476 88.9823 105.393 89.4975 106.005 89.8451V89.8865H103.681V89.8451C104.293 89.4975 104.21 88.9823 104.21 88.3425V85.0157C104.21 84.3755 104.293 83.8743 103.681 83.5267V83.4845H104.53Z" fill="#7B6856"/>
<path id="Vector_5" d="M118.058 81.9126L116.68 85.4198H119.422L118.058 81.9126ZM116.318 86.4494L115.595 88.4118C115.302 89.1911 115.205 89.5941 115.873 89.8449V89.8867H113.312V89.8449C114.12 89.4414 114.357 88.6622 114.662 87.8689L116.987 82.0657C117.181 81.5646 117.445 80.9802 116.778 80.7712V80.7299H118.977L121.871 87.8689C122.192 88.6622 122.442 89.4414 123.235 89.8449V89.8867H120.382V89.8449C121.064 89.5391 120.953 89.3856 120.577 88.4118L119.825 86.4494H116.318Z" fill="#7B6856"/>
<path id="Vector_6" d="M125.867 83.4847C126.173 83.4847 126.507 83.4711 126.799 83.3043H126.841V84.3753C127.328 83.7078 127.899 83.3043 128.803 83.3043C129.582 83.3043 130.473 83.6101 130.918 84.2644C131.308 84.8206 131.267 85.6838 131.267 86.3377V88.356C131.267 88.9957 131.183 89.4973 131.795 89.8449V89.8867H129.471V89.8449C130.083 89.4973 130 88.9821 130 88.356V86.4772C130 84.9882 129.582 84.2226 128.316 84.2226C127.05 84.2226 126.841 85.0709 126.841 85.8924V88.356C126.841 88.9957 126.757 89.4973 127.37 89.8449V89.8867H125.046V89.8449C125.658 89.4973 125.574 88.9821 125.574 88.3423V85.03C125.574 84.3898 125.658 83.8746 125.046 83.527V83.4847H125.867Z" fill="#7B6856"/>
<path id="Vector_7" d="M94.1811 63.8373C95.99 63.8373 97.368 64.7143 97.368 66.2723C97.368 67.8735 95.8791 68.8885 94.3065 68.8885C93.9589 68.8885 93.6104 68.8476 93.2906 68.6941C94.4874 68.6245 95.7814 67.8871 95.7814 66.5513C95.7814 65.3263 94.919 64.8392 93.8054 64.8392C93.4714 64.8392 93.1515 64.8669 92.8312 64.9228V71.1994C92.8312 71.9787 92.8176 72.5357 93.555 72.9528V72.9946H90.7856V72.9528C91.4954 72.702 91.4113 71.6724 91.4113 71.0463V65.7997C91.4113 65.1732 91.4954 64.1577 90.7993 63.8796V63.8373H94.1811Z" fill="#7B6856"/>
<path id="Vector_8" d="M104.299 68.7641C104.147 67.7895 103.506 67.3306 102.504 67.3306C101.572 67.3306 100.876 67.8872 100.709 68.7641H104.299ZM100.653 69.5711C100.682 71.269 101.864 72.2564 103.437 72.2564C104.272 72.2564 105.079 72.0205 105.719 71.5198H105.76L105.065 72.8271C104.466 73.0779 103.799 73.1755 103.144 73.1755C100.779 73.1755 99.1499 71.6861 99.1499 69.7519C99.1499 67.8181 100.556 66.4123 102.629 66.4123C104.522 66.4123 105.816 67.7759 105.76 69.5711H100.653Z" fill="#7B6856"/>
<path id="Vector_9" d="M113.639 73.1758C112.72 73.1199 111.801 72.8418 111.801 71.7282V69.5299C111.398 69.7385 110.925 69.8494 110.466 69.9603C109.798 70.1143 109.046 70.2669 109.046 71.1153C109.046 71.9785 109.825 72.2566 110.563 72.2566C110.897 72.2566 111.231 72.1594 111.565 72.0621L110.744 73.1063C110.507 73.1476 110.257 73.1758 110.02 73.1758C108.615 73.1758 107.64 72.2852 107.64 71.1302C107.64 68.5413 111.801 69.7385 111.801 68.2209C111.801 67.553 110.98 67.3308 110.466 67.3308C109.756 67.3308 109.199 67.5948 108.573 67.887L109.506 66.4953L110.41 66.4125C111.912 66.4125 113.054 66.8429 113.068 68.5276V70.6154C113.068 71.7145 113.096 72.1317 114.251 72.2566L113.639 73.1758Z" fill="#7B6856"/>
<path id="Vector_10" d="M116.923 66.5924C117.244 66.5924 117.578 66.5788 117.773 66.4125H117.814V67.4694C118.121 66.8428 118.761 66.4125 119.457 66.4125L119.958 66.4538V67.7338C119.805 67.5675 119.554 67.5116 119.317 67.5116C118.259 67.5116 117.814 68.0682 117.814 69.5013V71.45C117.814 72.0902 117.731 72.605 118.344 72.9526V72.9949H116.019V72.9526C116.632 72.605 116.548 72.0902 116.548 71.45V68.1232C116.548 67.483 116.632 66.9832 116.033 66.6347V66.5924H116.923Z" fill="#7B6856"/>
<path id="Vector_11" d="M122.644 63.8373C122.964 63.8373 123.326 63.851 123.534 63.6147H123.577V71.4502C123.577 72.0904 123.479 72.6052 124.092 72.9528V72.9946H121.795V72.9528C122.394 72.6052 122.31 72.0904 122.31 71.4502V65.3822C122.31 64.742 122.394 64.2272 121.795 63.8796V63.8373H122.644Z" fill="#7B6856"/>
<path id="Vector_12" d="M49.4991 20.7234C49.4991 22.2779 48.2381 23.5447 46.6871 23.5447C45.1269 23.5447 43.8645 22.2779 43.8645 20.7234C43.8645 19.1689 45.1269 17.9109 46.6871 17.9109C48.2381 17.9109 49.4991 19.1689 49.4991 20.7234Z" fill="#7B6856"/>
<path id="Vector_13" d="M129.278 20.7234C129.278 22.2779 128.017 23.5447 126.464 23.5447C124.904 23.5447 123.647 22.2779 123.647 20.7234C123.647 19.1689 124.904 17.9109 126.464 17.9109C128.017 17.9109 129.278 19.1689 129.278 20.7234Z" fill="#7B6856"/>
<path id="Vector_14" d="M48.9324 47.1316C48.9324 48.9796 50.0636 48.8586 52.2416 48.8586V49.8613H41.9888V48.8586C44.3793 48.8586 45.1893 49.0658 45.1893 46.2692V33.4084C45.1893 31.3519 42.7038 30.7125 42.7038 30.7125V29.9535L48.2768 28.0254H48.9324V47.1316Z" fill="#7B6856"/>
<path id="Vector_15" d="M128.711 47.1316C128.711 48.9796 129.839 48.8586 132.012 48.8586V49.8613H121.762V48.8586C124.147 48.8586 124.96 49.0658 124.96 46.2692V33.4084C124.96 31.3519 122.476 30.7125 122.476 30.7125V29.9535L128.047 28.0254H128.711V47.1316Z" fill="#7B6856"/>
<path id="Vector_16" d="M69.2832 28.6541V31.2154H62.054V43.5033C62.0109 47.5293 63.9165 47.9908 64.7446 48.1087C65.6026 48.2399 66.9903 48.1501 68.5466 46.6787L69.1969 47.4065C67.0524 49.6276 65.2339 50.5793 62.8649 50.5793C59.3304 50.5793 58.1296 48.9223 58.2123 44.3019V31.2154H55.157V30.3684C57.1383 28.9573 59.8535 26.9711 61.3742 23.6747H62.0927V28.6541H69.2832Z" fill="#7B6856"/>
<path id="Vector_17" d="M73.8656 35.8574C72.4127 35.8187 73.3187 33.7428 73.4441 33.4942C74.3976 31.629 78.6818 28.4808 82.179 28.2898C83.9205 28.1983 86.1139 28.0619 87.7357 30.2289C88.61 31.3931 88.8744 31.8798 88.8744 34.7732V42.2229C88.8744 46.6695 89.197 47.6159 89.8108 47.9429C91.3059 48.7252 92.383 47.381 92.383 47.381L92.8912 48.0766C91.2738 49.7495 89.6004 50.655 88.2105 50.655C86.0237 50.655 85.1921 48.8189 85.1771 46.9964C85.1771 46.9964 81.6444 50.655 78.1486 50.655C74.6506 50.655 72.3582 48.8585 72.3582 46.1345C72.3582 42.6677 75.3766 41.3072 78.9661 39.9868C80.199 39.5331 82.7501 38.6289 85.1243 37.8765V35.4724C85.1243 33.9201 85.2607 33.0066 84.272 31.8912C83.5174 30.9971 81.6848 30.4031 80.4066 30.4436C78.7104 30.4929 76.8954 31.5269 76.7186 32.74C76.5874 33.6297 76.5496 34.3834 76.2909 34.7292C76.0656 35.0231 75.3453 35.897 73.8656 35.8574ZM85.1314 39.1957C84.1955 39.512 82.916 39.9063 81.3289 40.4681C77.7367 41.7358 76.1593 43.0118 76.1593 45.287C76.1593 47.2903 78.1024 48.5681 79.9706 48.5259C81.134 48.4929 81.9128 48.2927 85.1243 45.7741L85.1314 39.1957Z" fill="#7B6856"/>
<path id="Vector_18" d="M111.564 18.7389C111.593 16.4611 109.072 16.5024 109.072 16.5024V15.8385L114.813 13.1919H115.447L115.489 45.0184C115.489 46.8127 115.192 47.9052 117.244 47.9202L118.66 47.9052L118.655 48.6576L112.777 50.4563L111.752 50.4374L111.671 47.2056H111.378C108.798 50.0375 105.971 50.6169 103.599 50.6169C98.2597 50.6169 95.0935 45.6335 95.0935 39.9962C95.0935 33.3975 100.902 27.9473 106.526 27.9473C108.115 27.9473 110.105 28.0678 111.564 28.8378V18.7389ZM111.616 33.4794C111.413 30.1442 108.891 29.4287 106.08 29.4573C101.844 29.4947 99.1754 33.3025 99.1754 38.4496C99.1754 43.7213 102.06 48.1749 107.454 47.8907C109.086 47.8031 111.256 46.4999 111.616 45.3682V33.4794Z" fill="#7B6856"/>
<path id="Vector_19" d="M142.078 46.0199C142.078 48.9908 142.293 48.7585 145.439 48.7585V49.8585H135.091V48.8117C137.548 48.8117 138.213 48.8474 138.213 46.6777V33.4694C138.087 31.8093 135.368 31.0613 135.368 31.0613V30.3405L141.486 27.9879H142.056V31.5237C145.19 29.4632 146.932 27.8941 150.476 27.8941C154.144 27.8941 156.15 29.8125 156.15 35.7279C156.15 42.7463 156.168 45.4959 156.15 47.556C156.143 48.9908 159.55 48.8025 159.55 48.8025L159.56 49.8616H149.035V48.7352C149.958 48.7352 151.453 48.8192 151.971 48.2991C152.159 48.1108 152.253 47.7087 152.253 46.9413V35.7055C152.24 30.92 150.277 30.5086 148.02 30.4158C145.811 30.3216 143.826 31.7129 142.078 32.68V46.0199Z" fill="#7B6856"/>
<path id="Vector_20" d="M179.085 36.1904C178.996 36.4214 178.883 36.4624 178.766 36.4624H165.177C165.177 36.9525 164.366 46.4182 171.391 47.6898C174.291 48.2077 177.267 46.3808 178.825 44.4321L179.47 45.1343C177.832 47.5389 174.448 50.5569 170.594 50.5569C164.265 50.5569 161.305 45.4894 161.414 39.3703C161.51 33.7766 164.782 27.867 171.216 27.867C177.847 27.867 179.305 33.3274 179.242 35.1226C179.242 35.1226 179.242 35.8072 179.085 36.1904ZM174.225 35.0231C174.68 35.0231 174.965 34.5404 175.017 34.1898C175.503 31.0834 173.451 29.242 170.889 29.242C169.144 29.242 166.336 30.0133 165.247 35.0231H174.225Z" fill="#7B6856"/>
<path id="Vector_21" d="M184.14 43.0822C184.772 46.2423 186.695 49.1005 189.934 49.1005C192.05 49.1005 193.824 47.9587 193.925 45.8779C193.955 45.1238 194.04 43.8227 192.631 42.5982C189.291 39.7118 183.884 39.9648 183.486 34.1792C183.267 30.9113 186.062 27.7865 190.92 27.7865C192.727 27.7865 194.984 28.3228 196.383 29.1615L196.691 33.8439H195.569C194.81 30.0793 192.727 29.1509 190.615 29.1509C188.956 29.1509 186.621 30.0793 186.621 32.2437C186.621 38.0464 197.839 36.5425 197.839 43.7109C197.839 47.8689 193.661 50.428 190.096 50.428C185.936 50.428 183.724 48.8009 183.724 48.8009L183.184 43.2771L184.14 43.0822Z" fill="#7B6856"/>
<path id="Vector_22" d="M37.9568 33.7115C37.7209 33.9865 37.1107 34.0178 36.8717 33.781C36.2971 31.6427 34.7685 28.8271 30.2889 28.8271C25.9765 28.8271 21.6345 31.8851 21.6345 38.8362C21.6345 46.0663 26.1503 49.5973 30.5274 49.5973C34.8024 49.5973 36.6685 46.7456 37.6175 44.5399C37.9255 44.2346 38.4659 44.3679 38.6379 44.6759C38.3994 46.9494 37.4825 49.189 37.0086 49.8344C36.6003 49.9013 36.1928 50.0373 35.8215 50.1376C35.0748 50.3752 32.7322 50.9534 30.5274 50.9534C27.1667 50.9534 24.282 50.2758 21.8378 48.6794C19.0905 46.8807 17.0203 43.7941 17.0203 39.3484C17.0203 35.3765 18.7851 32.2873 21.2949 30.353C23.8055 28.4531 27.234 27.4692 30.6629 27.4692C32.5971 27.4692 34.9388 27.8107 36.5316 28.2164C36.9413 28.3184 37.1802 28.351 37.4825 28.4197C37.552 29.2024 37.6175 31.2031 37.9568 33.7115Z" fill="#7B6856"/>
<path id="Vector_23" d="M49.4991 20.7234C49.4991 22.2779 48.2381 23.5447 46.6871 23.5447C45.1269 23.5447 43.8645 22.2779 43.8645 20.7234C43.8645 19.1689 45.1269 17.9109 46.6871 17.9109C48.2381 17.9109 49.4991 19.1689 49.4991 20.7234Z" fill="#7B6856"/>
<path id="Vector_24" d="M129.278 20.7234C129.278 22.2779 128.017 23.5447 126.464 23.5447C124.904 23.5447 123.647 22.2779 123.647 20.7234C123.647 19.1689 124.904 17.9109 126.464 17.9109C128.017 17.9109 129.278 19.1689 129.278 20.7234Z" fill="#7B6856"/>
<path id="Vector_25" d="M48.9324 47.1316C48.9324 48.9796 50.0636 48.8586 52.2416 48.8586V49.8613H41.9888V48.8586C44.3793 48.8586 45.1893 49.0658 45.1893 46.2692V33.4084C45.1893 31.3519 42.7038 30.7125 42.7038 30.7125V29.9535L48.2768 28.0254H48.9324V47.1316Z" fill="#7B6856"/>
<path id="Vector_26" d="M128.711 47.1316C128.711 48.9796 129.839 48.8586 132.012 48.8586V49.8613H121.762V48.8586C124.147 48.8586 124.96 49.0658 124.96 46.2692V33.4084C124.96 31.3519 122.476 30.7125 122.476 30.7125V29.9535L128.047 28.0254H128.711V47.1316Z" fill="#7B6856"/>
<path id="Vector_27" d="M69.2832 28.6541V31.2154H62.054V43.5033C62.0109 47.5293 63.9165 47.9908 64.7446 48.1087C65.6026 48.2399 66.9903 48.1501 68.5466 46.6787L69.1969 47.4065C67.0524 49.6276 65.2339 50.5793 62.8649 50.5793C59.3304 50.5793 58.1296 48.9223 58.2123 44.3019V31.2154H55.157V30.3684C57.1383 28.9573 59.8535 26.9711 61.3742 23.6747H62.0927V28.6541H69.2832Z" fill="#7B6856"/>
<path id="Vector_28" d="M73.8656 35.8574C72.4127 35.8187 73.3187 33.7428 73.4441 33.4942C74.3976 31.629 78.6818 28.4808 82.179 28.2898C83.9205 28.1983 86.1139 28.0619 87.7357 30.2289C88.61 31.3931 88.8744 31.8798 88.8744 34.7732V42.2229C88.8744 46.6695 89.197 47.6159 89.8108 47.9429C91.3059 48.7252 92.383 47.381 92.383 47.381L92.8912 48.0766C91.2738 49.7495 89.6004 50.655 88.2105 50.655C86.0237 50.655 85.1921 48.8189 85.1771 46.9964C85.1771 46.9964 81.6444 50.655 78.1486 50.655C74.6506 50.655 72.3582 48.8585 72.3582 46.1345C72.3582 42.6677 75.3766 41.3072 78.9661 39.9868C80.199 39.5331 82.7501 38.6289 85.1243 37.8765V35.4724C85.1243 33.9201 85.2607 33.0066 84.272 31.8912C83.5174 30.9971 81.6848 30.4031 80.4066 30.4436C78.7104 30.4929 76.8954 31.5269 76.7186 32.74C76.5874 33.6297 76.5496 34.3834 76.2909 34.7292C76.0656 35.0231 75.3453 35.897 73.8656 35.8574ZM85.1314 39.1957C84.1955 39.512 82.916 39.9063 81.3289 40.4681C77.7367 41.7358 76.1593 43.0118 76.1593 45.287C76.1593 47.2903 78.1024 48.5681 79.9706 48.5259C81.134 48.4929 81.9128 48.2927 85.1243 45.7741L85.1314 39.1957Z" fill="#7B6856"/>
<path id="Vector_29" d="M111.564 18.7389C111.593 16.4611 109.072 16.5024 109.072 16.5024V15.8385L114.813 13.1919H115.447L115.489 45.0184C115.489 46.8127 115.192 47.9052 117.244 47.9202L118.66 47.9052L118.655 48.6576L112.777 50.4563L111.752 50.4374L111.671 47.2056H111.378C108.798 50.0375 105.971 50.6169 103.599 50.6169C98.2597 50.6169 95.0935 45.6335 95.0935 39.9962C95.0935 33.3975 100.902 27.9473 106.526 27.9473C108.115 27.9473 110.105 28.0678 111.564 28.8378V18.7389ZM111.616 33.4794C111.413 30.1442 108.891 29.4287 106.08 29.4573C101.844 29.4947 99.1754 33.3025 99.1754 38.4496C99.1754 43.7213 102.06 48.1749 107.454 47.8907C109.086 47.8031 111.256 46.4999 111.616 45.3682V33.4794Z" fill="#7B6856"/>
<path id="Vector_30" d="M142.078 46.0199C142.078 48.9908 142.293 48.7585 145.439 48.7585V49.8585H135.091V48.8117C137.548 48.8117 138.213 48.8474 138.213 46.6777V33.4694C138.087 31.8093 135.368 31.0613 135.368 31.0613V30.3405L141.486 27.9879H142.056V31.5237C145.19 29.4632 146.932 27.8941 150.476 27.8941C154.144 27.8941 156.15 29.8125 156.15 35.7279C156.15 42.7463 156.168 45.4959 156.15 47.556C156.143 48.9908 159.55 48.8025 159.55 48.8025L159.56 49.8616H149.035V48.7352C149.958 48.7352 151.453 48.8192 151.971 48.2991C152.159 48.1108 152.253 47.7087 152.253 46.9413V35.7055C152.24 30.92 150.277 30.5086 148.02 30.4158C145.811 30.3216 143.826 31.7129 142.078 32.68V46.0199Z" fill="#7B6856"/>
<path id="Vector_31" d="M179.085 36.1904C178.996 36.4214 178.883 36.4624 178.766 36.4624H165.177C165.177 36.9525 164.366 46.4182 171.391 47.6898C174.291 48.2077 177.267 46.3808 178.825 44.4321L179.47 45.1343C177.832 47.5389 174.448 50.5569 170.594 50.5569C164.265 50.5569 161.305 45.4894 161.414 39.3703C161.51 33.7766 164.782 27.867 171.216 27.867C177.847 27.867 179.305 33.3274 179.242 35.1226C179.242 35.1226 179.242 35.8072 179.085 36.1904ZM174.225 35.0231C174.68 35.0231 174.965 34.5404 175.017 34.1898C175.503 31.0834 173.451 29.242 170.889 29.242C169.144 29.242 166.336 30.0133 165.247 35.0231H174.225Z" fill="#7B6856"/>
<path id="Vector_32" d="M184.14 43.0822C184.772 46.2423 186.695 49.1005 189.934 49.1005C192.05 49.1005 193.824 47.9587 193.925 45.8779C193.955 45.1238 194.04 43.8227 192.631 42.5982C189.291 39.7118 183.884 39.9648 183.486 34.1792C183.267 30.9113 186.062 27.7865 190.92 27.7865C192.727 27.7865 194.984 28.3228 196.383 29.1615L196.691 33.8439H195.569C194.81 30.0793 192.727 29.1509 190.615 29.1509C188.956 29.1509 186.621 30.0793 186.621 32.2437C186.621 38.0464 197.839 36.5425 197.839 43.7109C197.839 47.8689 193.661 50.428 190.096 50.428C185.936 50.428 183.724 48.8009 183.724 48.8009L183.184 43.2771L184.14 43.0822Z" fill="#7B6856"/>
<path id="Vector_33" d="M37.9568 33.7115C37.7209 33.9865 37.1107 34.0178 36.8717 33.781C36.2971 31.6427 34.7685 28.8271 30.2889 28.8271C25.9765 28.8271 21.6345 31.8851 21.6345 38.8362C21.6345 46.0663 26.1503 49.5973 30.5274 49.5973C34.8024 49.5973 36.6685 46.7456 37.6175 44.5399C37.9255 44.2346 38.4659 44.3679 38.6379 44.6759C38.3994 46.9494 37.4825 49.189 37.0086 49.8344C36.6003 49.9013 36.1928 50.0373 35.8215 50.1376C35.0748 50.3752 32.7322 50.9534 30.5274 50.9534C27.1667 50.9534 24.282 50.2758 21.8378 48.6794C19.0905 46.8807 17.0203 43.7941 17.0203 39.3484C17.0203 35.3765 18.7851 32.2873 21.2949 30.353C23.8055 28.4531 27.234 27.4692 30.6629 27.4692C32.5971 27.4692 34.9388 27.8107 36.5316 28.2164C36.9413 28.3184 37.1802 28.351 37.4825 28.4197C37.552 29.2024 37.6175 31.2031 37.9568 33.7115Z" fill="#7B6856"/>
<path id="Vector_34" fill-rule="evenodd" clip-rule="evenodd" d="M32.9791 103.265L32.9971 103.284V108.981H34.3387V102.323H32.0766L30.5643 107.166H30.5423L29.1533 102.323H26.812V108.981H28.1483V103.284L28.1668 103.265L29.9285 108.981H31.1152L32.9791 103.265Z" fill="#7B6856"/>
<path id="Vector_35" fill-rule="evenodd" clip-rule="evenodd" d="M37.6542 105.664C37.6374 105.452 37.7972 105.001 38.2737 105.001C38.7638 105.001 38.9139 105.377 38.9139 105.57V106.002C38.3612 105.987 37.6542 106.014 37.1059 106.255C36.269 106.612 36.1199 107.396 36.1199 107.719C36.1199 108.624 36.7623 109.119 37.6313 109.119C38.2583 109.119 38.733 108.899 39.0529 108.364H39.0683C39.0683 108.557 39.089 108.77 39.1141 108.981H40.3588C40.3408 108.843 40.3056 108.707 40.2937 108.476V105.95C40.2937 104.555 39.254 104.217 38.3238 104.217C37.8227 104.217 37.3378 104.291 36.9581 104.511C36.5907 104.722 36.3408 105.085 36.3315 105.664H37.6542ZM38.9139 106.805C38.9139 107.352 38.8844 108.196 38.1197 108.196C37.7298 108.196 37.4487 107.921 37.4487 107.534C37.4487 106.786 38.4321 106.798 38.9139 106.805Z" fill="#7B6856"/>
<path id="Vector_36" fill-rule="evenodd" clip-rule="evenodd" d="M43.6288 104.354H42.2551V108.981H43.6394V106.199C43.6548 105.526 44.0415 105.14 44.4661 105.14C45.153 105.14 45.2863 105.701 45.3008 106.199V108.981H46.6811V105.97C46.6811 105.809 46.6613 105.515 46.5847 105.228C46.4232 104.555 45.5234 104.217 45.0663 104.217C44.3662 104.217 43.9311 104.492 43.6446 104.916L43.6288 104.89V104.354Z" fill="#7B6856"/>
<path id="Vector_37" fill-rule="evenodd" clip-rule="evenodd" d="M49.9721 105.664C49.9584 105.452 50.1168 105.001 50.596 105.001C51.0844 105.001 51.2278 105.377 51.2278 105.57V106.002C50.6792 105.987 49.9721 106.014 49.4282 106.255C48.5852 106.612 48.4382 107.396 48.4382 107.719C48.4382 108.624 49.0789 109.119 49.947 109.119C50.5771 109.119 51.0518 108.899 51.3695 108.364H51.388C51.388 108.557 51.4052 108.77 51.4364 108.981H52.6763C52.6592 108.843 52.6244 108.707 52.6165 108.476V105.95C52.6165 104.555 51.5719 104.217 50.6435 104.217C50.1437 104.217 49.6531 104.291 49.2786 104.511C48.9117 104.722 48.6587 105.085 48.649 105.664H49.9721ZM51.2278 106.805C51.2278 107.352 51.201 108.196 50.4354 108.196C50.0482 108.196 49.7609 107.921 49.7609 107.534C49.7609 106.786 50.7535 106.798 51.2278 106.805Z" fill="#7B6856"/>
<path id="Vector_38" fill-rule="evenodd" clip-rule="evenodd" d="M59.0278 104.354H57.6466V104.89H57.626C57.4033 104.418 57.0073 104.217 56.3865 104.217C55.0995 104.217 54.4241 105.407 54.4241 106.586C54.4241 107.709 55.07 108.892 56.3253 108.892C56.8533 108.892 57.3356 108.707 57.626 108.251H57.6466C57.6994 108.925 57.7333 109.885 56.6852 109.885C56.3082 109.885 55.9399 109.73 55.9196 109.312H54.6106C54.6384 110.558 55.7357 110.808 56.7592 110.808C58.7893 110.826 59.0278 109.646 59.0278 108.568V104.354ZM55.8585 106.593C55.8585 105.913 55.9936 105.14 56.7477 105.14C57.5041 105.14 57.6466 105.913 57.6466 106.593C57.6466 107.197 57.5041 107.97 56.7477 107.97C55.9936 107.97 55.8585 107.197 55.8585 106.593Z" fill="#7B6856"/>
<path id="Vector_39" fill-rule="evenodd" clip-rule="evenodd" d="M62.1948 106.113C62.2124 105.608 62.3514 105.14 62.9877 105.14C63.6604 105.14 63.7955 105.608 63.7955 106.113H62.1948ZM65.2251 107.037C65.2251 106.731 65.2251 106.438 65.1921 106.151C65.1556 105.856 65.0874 105.581 64.9615 105.322C64.573 104.511 63.8514 104.217 62.9877 104.217C61.5766 104.217 60.7661 105.284 60.7661 106.679C60.7661 108.226 61.3975 109.119 62.9877 109.119C64.0657 109.119 64.9615 108.743 65.079 107.602H63.8347C63.7106 108.022 63.4633 108.196 62.9877 108.196C62.2744 108.196 62.1948 107.635 62.1948 107.037H65.2251Z" fill="#7B6856"/>
<path id="Vector_40" fill-rule="evenodd" clip-rule="evenodd" d="M70.07 104.89H70.0576C69.7963 104.503 69.2973 104.217 68.8204 104.217C67.3811 104.217 66.6538 105.422 66.6538 106.668C66.6538 107.858 67.2883 109.118 68.6492 109.118C69.2414 109.118 69.762 108.873 70.0669 108.327H70.0823C70.0823 108.549 70.0999 108.762 70.117 108.981H71.4982C71.4854 108.68 71.4573 108.364 71.4573 108.059V102.323H70.07V104.89ZM68.0807 106.668C68.0807 105.957 68.1885 105.139 69.0764 105.139C69.8249 105.139 70.07 106.032 70.07 106.668C70.07 107.303 69.8249 108.196 69.0764 108.196C68.1885 108.196 68.0807 107.377 68.0807 106.668Z" fill="#7B6856"/>
<path id="Vector_41" fill-rule="evenodd" clip-rule="evenodd" d="M76.4983 108.059C76.4983 108.364 76.4711 108.68 76.4587 108.981H77.8373C77.8531 108.762 77.8751 108.549 77.8751 108.326H77.8936C78.1972 108.873 78.7124 109.118 79.3157 109.118C80.6656 109.118 81.3049 107.858 81.3049 106.668C81.3049 105.422 80.5758 104.217 79.1366 104.217C78.6574 104.217 78.1607 104.503 77.9011 104.89H77.8843V102.323H76.4983V108.059ZM77.8843 106.668C77.8843 106.032 78.1294 105.139 78.8805 105.139C79.7697 105.139 79.8736 105.957 79.8736 106.668C79.8736 107.377 79.7697 108.196 78.8805 108.196C78.1294 108.196 77.8843 107.303 77.8843 106.668Z" fill="#7B6856"/>
<path id="Vector_42" fill-rule="evenodd" clip-rule="evenodd" d="M85.0889 107.552H85.0731L84.0567 104.354H82.5862L84.3691 108.992L83.7799 110.744H85.1487L87.4737 104.354H86.1229L85.0889 107.552Z" fill="#7B6856"/>
<path id="Vector_43" fill-rule="evenodd" clip-rule="evenodd" d="M91.8208 103.432H93.8012V108.981H95.2312V103.432H97.2143V102.323H91.8208V103.432Z" fill="#7B6856"/>
<path id="Vector_44" fill-rule="evenodd" clip-rule="evenodd" d="M100.105 108.981V106.199C100.123 105.526 100.498 105.14 100.935 105.14C101.619 105.14 101.755 105.701 101.763 106.199V108.981H103.149V105.97C103.149 105.809 103.13 105.515 103.053 105.229C102.89 104.555 101.996 104.217 101.532 104.217C100.836 104.217 100.4 104.492 100.113 104.917L100.101 104.896V102.324H98.7212V108.981H100.105Z" fill="#7B6856"/>
<path id="Vector_45" fill-rule="evenodd" clip-rule="evenodd" d="M106.347 106.113C106.363 105.608 106.497 105.14 107.139 105.14C107.809 105.14 107.949 105.608 107.949 106.113H106.347ZM109.378 107.037C109.378 106.731 109.378 106.438 109.339 106.151C109.306 105.856 109.236 105.581 109.108 105.322C108.721 104.511 107.997 104.217 107.139 104.217C105.727 104.217 104.917 105.284 104.917 106.679C104.917 108.226 105.555 109.119 107.139 109.119C108.214 109.119 109.108 108.743 109.227 107.602H107.984C107.856 108.022 107.621 108.196 107.139 108.196C106.426 108.196 106.347 107.635 106.347 107.037H109.378Z" fill="#7B6856"/>
<path id="Vector_46" fill-rule="evenodd" clip-rule="evenodd" d="M116.132 106.467L117.103 103.625H117.122L118.038 106.467H116.132ZM115.258 108.981L115.762 107.571H118.395L118.874 108.981H120.313L117.999 102.324H116.303L113.896 108.981H115.258Z" fill="#7B6856"/>
<path id="Vector_47" fill-rule="evenodd" clip-rule="evenodd" d="M125.39 105.589C125.323 104.566 124.493 104.217 123.517 104.217C122.703 104.217 121.533 104.642 121.533 105.608C121.533 106.687 122.353 106.879 123.238 107.092C123.517 107.156 124.18 107.314 124.18 107.684C124.18 108.04 123.894 108.196 123.517 108.196C123.116 108.196 122.788 107.996 122.758 107.634H121.477C121.498 108.695 122.438 109.118 123.517 109.118C124.373 109.118 125.608 108.612 125.608 107.602C125.608 105.864 122.963 106.28 122.963 105.553C122.963 105.247 123.138 105.139 123.517 105.139C123.833 105.139 124.124 105.276 124.14 105.589H125.39Z" fill="#7B6856"/>
<path id="Vector_48" fill-rule="evenodd" clip-rule="evenodd" d="M131.02 105.976C131.036 104.89 130.151 104.217 128.974 104.217C127.601 104.217 126.904 105.439 126.904 106.668C126.904 107.895 127.601 109.119 128.974 109.119C130.24 109.119 130.973 108.476 131.02 107.297H129.676C129.664 107.671 129.507 108.196 128.974 108.196C128.384 108.196 128.381 107.028 128.334 106.604C128.359 106.242 128.363 105.14 128.957 105.14C129.491 105.14 129.648 105.596 129.659 105.976H131.02Z" fill="#7B6856"/>
<path id="Vector_49" fill-rule="evenodd" clip-rule="evenodd" d="M133.831 106.668C133.831 105.931 133.972 105.139 134.816 105.139C135.665 105.139 135.802 105.931 135.802 106.668C135.802 107.404 135.665 108.196 134.816 108.196C133.972 108.196 133.831 107.404 133.831 106.668ZM137.236 106.668C137.236 105.213 136.33 104.217 134.816 104.217C133.314 104.217 132.4 105.213 132.4 106.668C132.4 108.127 133.314 109.118 134.816 109.118C136.33 109.118 137.236 108.127 137.236 106.668Z" fill="#7B6856"/>
<path id="Vector_50" fill-rule="evenodd" clip-rule="evenodd" d="M138.42 104.354V105.277H139.347V107.553C139.347 108.557 139.581 109.119 140.659 109.119C140.852 109.119 141.589 109.056 141.749 108.981V108.17C141.598 108.177 141.455 108.196 141.306 108.196C140.827 108.196 140.731 108.032 140.731 107.423V105.277H141.774V104.354H140.731V102.946L139.347 103.44V104.354H138.42Z" fill="#7B6856"/>
<path id="Vector_51" fill-rule="evenodd" clip-rule="evenodd" d="M142.787 104.354V105.277H143.712V107.553C143.712 108.557 143.948 109.119 145.026 109.119C145.219 109.119 145.959 109.056 146.116 108.981V108.17C145.969 108.177 145.818 108.196 145.673 108.196C145.19 108.196 145.099 108.032 145.099 107.423V105.277H146.136V104.354H145.099V102.946L143.712 103.44V104.354H142.787Z" fill="#7B6856"/>
<path id="Vector_52" fill-rule="evenodd" clip-rule="evenodd" d="M155.436 108.981V107.876H152.549V102.324H151.116V108.981H155.436Z" fill="#7B6856"/>
<path id="Vector_53" fill-rule="evenodd" clip-rule="evenodd" d="M156.933 103.514H158.407V102.324H156.933V103.514ZM156.982 108.981H158.362V104.353H156.982V108.981Z" fill="#7B6856"/>
<path id="Vector_54" fill-rule="evenodd" clip-rule="evenodd" d="M161.728 104.354H160.359V108.981H161.734V106.199C161.753 105.526 162.128 105.14 162.563 105.14C163.249 105.14 163.385 105.701 163.393 106.199V108.981H164.776V106.199C164.797 105.526 165.173 105.14 165.601 105.14C166.291 105.14 166.428 105.701 166.436 106.199V108.981H167.815V106.199C167.815 105.827 167.826 105.44 167.681 105.09C167.488 104.585 166.726 104.217 166.209 104.217C165.507 104.217 165.07 104.492 164.639 105.09C164.446 104.585 163.68 104.217 163.167 104.217C162.46 104.217 162.028 104.492 161.742 104.896H161.728V104.354Z" fill="#7B6856"/>
<path id="Vector_55" fill-rule="evenodd" clip-rule="evenodd" d="M169.76 103.514H171.236V102.324H169.76V103.514ZM169.805 108.981H171.189V104.353H169.805V108.981Z" fill="#7B6856"/>
<path id="Vector_56" fill-rule="evenodd" clip-rule="evenodd" d="M172.571 104.354V105.277H173.494V107.553C173.494 108.557 173.731 109.119 174.811 109.119C175.004 109.119 175.739 109.056 175.895 108.981V108.17C175.752 108.177 175.606 108.196 175.456 108.196C174.974 108.196 174.883 108.032 174.883 107.423V105.277H175.926V104.354H174.883V102.946L173.494 103.44V104.354H172.571Z" fill="#7B6856"/>
<path id="Vector_57" fill-rule="evenodd" clip-rule="evenodd" d="M178.741 106.113C178.759 105.608 178.901 105.14 179.539 105.14C180.21 105.14 180.345 105.608 180.345 106.113H178.741ZM181.776 107.037C181.776 106.731 181.776 106.438 181.738 106.151C181.706 105.856 181.638 105.581 181.508 105.322C181.121 104.511 180.4 104.217 179.539 104.217C178.128 104.217 177.314 105.284 177.314 106.679C177.314 108.226 177.947 109.119 179.539 109.119C180.616 109.119 181.508 108.743 181.627 107.602H180.386C180.251 108.022 180.012 108.196 179.539 108.196C178.819 108.196 178.741 107.635 178.741 107.037H181.776Z" fill="#7B6856"/>
<path id="Vector_58" fill-rule="evenodd" clip-rule="evenodd" d="M186.622 104.89H186.602C186.343 104.503 185.848 104.217 185.364 104.217C183.929 104.217 183.2 105.422 183.2 106.668C183.2 107.858 183.837 109.118 185.191 109.118C185.79 109.118 186.308 108.873 186.612 108.327H186.631C186.631 108.549 186.646 108.762 186.668 108.981H188.044C188.03 108.68 188.007 108.364 188.007 108.059V102.323H186.622V104.89ZM184.633 106.668C184.633 105.957 184.74 105.139 185.624 105.139C186.371 105.139 186.622 106.032 186.622 106.668C186.622 107.303 186.371 108.196 185.624 108.196C184.74 108.196 184.633 107.377 184.633 106.668Z" fill="#7B6856"/>
</g>
</g>
</g>
</g>
</g>
</g>
<defs>
<clipPath id="clip0_176_245">
<rect width="220" height="220" fill="white" transform="translate(0 -48)"/>
</clipPath>
</defs>
</svg>
